<svg width="64" height="78" viewBox="0 0 64 78" fill="none" xmlns="http://www.w3.org/2000/svg">
<path d="M50.7392 6.23633V66.9151H6.59375V71.7394H55.5634V6.23633H50.7392Z" fill="#9EA3AD"/>
<path d="M14.218 1.47266L1.83008 13.8605V66.9757H50.7998V1.47266H14.218Z" fill="white"/>
<path d="M30.0482 61.8845C39.7349 61.8845 47.5876 54.0318 47.5876 44.3451C47.5876 34.6583 39.7349 26.8057 30.0482 26.8057C20.3614 26.8057 12.5088 34.6583 12.5088 44.3451C12.5088 54.0318 20.3614 61.8845 30.0482 61.8845Z" fill="#FDEA00"/>
<path d="M38.9093 53.2179C34.0244 58.1027 26.0729 58.1027 21.1881 53.2179C16.3032 48.333 16.3032 40.3815 21.1881 35.4966C26.0729 30.6118 34.0244 30.6118 38.9093 35.4966C43.8062 40.3694 43.8062 48.3209 38.9093 53.2179Z" fill="white"/>
<path d="M46.3025 57.6792L43.8177 55.1943C43.3935 55.7277 42.945 56.2489 42.448 56.7458C41.951 57.2428 41.4298 57.6913 40.8965 58.1155L43.3813 60.6004C43.1025 61.861 43.4419 63.2186 44.4116 64.2004L55.5995 75.3883C57.1147 76.9034 59.5753 76.9034 61.0904 75.3883C62.6056 73.8731 62.6056 71.4125 61.0904 69.8974L49.9025 58.7095C48.9207 57.7398 47.5631 57.4004 46.3025 57.6792Z" fill="#FDEA00"/>
<path d="M14.1574 13.799V1.41113L1.76953 13.799H14.1574Z" fill="#9EA3AD"/>
<path d="M39.539 34.8417C37.0057 32.3084 33.6239 30.9023 30.0239 30.9023C26.4239 30.9023 23.0421 32.2963 20.5087 34.8417C17.9754 37.3872 16.5693 40.7569 16.5693 44.3569C16.5693 47.9569 17.9633 51.3387 20.5087 53.872C23.0421 56.4054 26.4239 57.8114 30.0239 57.8114C33.6239 57.8114 37.0057 56.4175 39.539 53.872C44.7754 48.6236 44.7754 40.0902 39.539 34.8417ZM38.2542 52.5872C36.0602 54.7811 33.139 55.9933 30.0239 55.9933C26.9087 55.9933 23.9875 54.7811 21.7936 52.5872C19.5996 50.3933 18.3875 47.472 18.3875 44.3569C18.3875 41.2417 19.5996 38.3205 21.7936 36.1266C23.9875 33.9326 26.9087 32.7205 30.0239 32.7205C33.139 32.7205 36.0602 33.9326 38.2542 36.1266C42.7875 40.6599 42.7875 48.0417 38.2542 52.5872Z" fill="#2B2A3A"/>
<path d="M61.7451 69.3027L50.5451 58.0906C50.0335 57.5811 49.4137 57.1934 48.7317 56.9563C48.0497 56.7192 47.323 56.6387 46.6057 56.7209L44.9936 55.1088C50.1815 47.8967 49.5512 37.7755 43.0784 31.2906C35.8784 24.0906 24.1693 24.0906 16.9693 31.2906C9.76934 38.4906 9.76934 50.1997 16.9693 57.3997C20.5693 60.9997 25.2966 62.7937 30.0239 62.7937C33.8057 62.7937 37.5875 61.6179 40.7875 59.3149L42.3996 60.927C42.2299 62.3815 42.7269 63.824 43.7693 64.8543L54.9693 76.0664C55.8697 76.9662 57.0904 77.4716 58.3633 77.4716C59.6361 77.4716 60.8569 76.9662 61.7572 76.0664C62.6663 75.1573 63.1633 73.9573 63.1633 72.6724C63.1497 71.4069 62.6405 70.1972 61.7451 69.3027ZM18.2421 56.127C11.7572 49.6421 11.7572 39.0724 18.2421 32.5876C21.4905 29.3391 25.7451 27.7149 30.0118 27.7149C34.2784 27.7149 38.533 29.3391 41.7815 32.5876C48.2663 39.0724 48.2663 49.6421 41.7815 56.127C35.2966 62.6118 24.739 62.6118 18.2421 56.127ZM60.4602 74.7937C59.2966 75.9573 57.4057 75.9573 56.2542 74.7937L45.0542 63.5937C44.6997 63.2373 44.4415 62.7968 44.3037 62.3135C44.1659 61.8301 44.153 61.3197 44.2663 60.83C44.3008 60.6815 44.2967 60.5266 44.2542 60.3802C44.2118 60.2338 44.1325 60.1007 44.0239 59.9937L42.2421 58.2118C42.2663 58.1876 42.2784 58.1634 42.2906 58.1391C42.5572 57.8967 42.836 57.6785 43.0905 57.4118C43.3451 57.1573 43.5633 56.8906 43.8057 56.624C43.8299 56.5997 43.8663 56.5876 43.8784 56.5634L45.6602 58.3452C45.8784 58.5634 46.1936 58.6603 46.4966 58.5876C47.5027 58.3573 48.533 58.6603 49.2602 59.3755L60.4602 70.5876C60.7369 70.8635 60.9565 71.1912 61.1063 71.5521C61.2561 71.913 61.3332 72.2999 61.3332 72.6906C61.3332 73.0814 61.2561 73.4683 61.1063 73.8291C60.9565 74.19 60.7369 74.5178 60.4602 74.7937Z" fill="#2B2A3A"/>
<path d="M35.2965 39.0718C35.1254 38.9028 34.8946 38.808 34.6541 38.808C34.4136 38.808 34.1827 38.9028 34.0117 39.0718L30.0238 43.0597L26.0359 39.0718C25.6844 38.7203 25.1026 38.7203 24.7511 39.0718C24.3995 39.4234 24.3995 40.0052 24.7511 40.3567L28.7389 44.3567L24.7511 48.3446C24.3995 48.6961 24.3995 49.2779 24.7511 49.6294C24.9329 49.8112 25.1632 49.8961 25.3935 49.8961C25.6238 49.8961 25.8541 49.8112 26.0359 49.6294L30.0238 45.6415L34.0117 49.6294C34.1935 49.8112 34.4238 49.8961 34.6541 49.8961C34.8844 49.8961 35.1147 49.8112 35.2965 49.6294C35.648 49.2779 35.648 48.6961 35.2965 48.3446L31.3086 44.3567L35.2965 40.3567C35.648 40.0052 35.648 39.4355 35.2965 39.0718ZM20.9935 7.72638H43.9632C44.4601 7.72638 44.8723 7.31426 44.8723 6.81729C44.8723 6.32032 44.4601 5.9082 43.9632 5.9082H20.9935C20.4965 5.9082 20.0844 6.32032 20.0844 6.81729C20.0844 7.31426 20.4965 7.72638 20.9935 7.72638ZM43.9753 10.7203H20.9814C20.4844 10.7203 20.0723 11.1324 20.0723 11.6294C20.0723 12.1264 20.4844 12.5385 20.9814 12.5385H43.9753C44.4723 12.5385 44.8844 12.1264 44.8844 11.6294C44.8844 11.1324 44.4723 10.7203 43.9753 10.7203ZM43.9753 15.5809H31.9026C31.4056 15.5809 30.9935 15.9931 30.9935 16.49C30.9935 16.987 31.4056 17.3991 31.9026 17.3991H43.9753C44.4723 17.3991 44.8844 16.987 44.8844 16.49C44.8844 15.9931 44.4723 15.5809 43.9753 15.5809ZM43.9753 20.4294H31.9026C31.4056 20.4294 30.9935 20.8415 30.9935 21.3385C30.9935 21.8355 31.4056 22.2476 31.9026 22.2476H43.9753C44.4723 22.2476 44.8844 21.8355 44.8844 21.3385C44.8844 20.8415 44.4723 20.4294 43.9753 20.4294Z" fill="#2B2A3A"/>
<path d="M46.8598 70.9268H7.5022V67.9207H42.0355C42.5325 67.9207 42.9446 67.5086 42.9446 67.0116C42.9446 66.5146 42.5325 66.1025 42.0355 66.1025H2.66584V14.7328H14.1567C14.6537 14.7328 15.0658 14.3207 15.0658 13.8237V2.33283H49.878V54.9389C49.878 55.4359 50.2901 55.848 50.7871 55.848C51.284 55.848 51.6961 55.4359 51.6961 54.9389V7.15707H54.7022V59.3146C54.7022 59.8116 55.1143 60.2237 55.6113 60.2237C56.1083 60.2237 56.5204 59.8116 56.5204 59.3146V6.24798C56.5204 5.75101 56.1083 5.33889 55.6113 5.33889H51.6961V1.42374C51.6961 0.92677 51.284 0.514648 50.7871 0.514648H14.1689C13.9264 0.514648 13.6961 0.611618 13.5264 0.781315L1.11432 13.1813C0.943786 13.3516 0.847868 13.5827 0.847656 13.8237V66.9995C0.847656 67.4965 1.25978 67.9086 1.75675 67.9086H5.6719V71.8237C5.6719 72.3207 6.08402 72.7328 6.58099 72.7328H46.8477C47.3446 72.7328 47.7568 72.3207 47.7568 71.8237C47.7568 71.3268 47.3568 70.9268 46.8598 70.9268ZM3.95069 12.9146L13.2477 3.61768V12.9146H3.95069Z" fill="#2B2A3A"/>
</svg>
