<svg width="25" height="24" viewBox="0 0 25 24" fill="none" xmlns="http://www.w3.org/2000/svg">
<rect x="5" y="5" width="14" height="14" rx="7" fill="black"/>
<path d="M14.4235 2.70842C13.3151 1.76386 11.6849 1.76387 10.5766 2.70841L9.24408 3.84395C9.08575 3.97887 8.88891 4.0604 8.68155 4.07694L6.93639 4.21621C5.48476 4.33205 4.33205 5.48476 4.21621 6.93638L4.07696 8.68154C4.06042 8.88888 3.97886 9.08578 3.84394 9.2441L2.7084 10.5766C1.76386 11.685 1.76387 13.3151 2.70842 14.4234L3.84396 15.756C3.97886 15.9143 4.0604 16.1112 4.07695 16.3185L4.21623 18.0636C4.33207 19.5152 5.48479 20.6679 6.93643 20.7837L8.68156 20.9231C8.88891 20.9396 9.08571 21.0212 9.24403 21.1561L10.5765 22.2916C11.6849 23.2361 13.3151 23.2362 14.4235 22.2916L15.756 21.1561C15.9143 21.0212 16.1111 20.9396 16.3184 20.923L18.0636 20.7837C19.5152 20.668 20.6679 19.5153 20.7839 18.0636L20.923 16.3185C20.9395 16.1112 21.0212 15.9142 21.156 15.7559L22.2916 14.4235C23.2362 13.3151 23.2362 11.6849 22.2916 10.5766L21.156 9.24406C21.0211 9.08573 20.9396 8.88889 20.9231 8.68155L20.7839 6.93639C20.668 5.48478 19.5152 4.33203 18.0636 4.2162L16.3184 4.07693C16.1111 4.06039 15.9143 3.97887 15.756 3.84395L14.4235 2.70842ZM15.2957 8.30631L16.6936 9.70425L9.70388 16.694L8.30594 15.2959L15.2957 8.30631ZM10.7524 10.7526C10.1733 11.3317 9.23447 11.3317 8.65542 10.7526C8.07638 10.1737 8.07638 9.23484 8.65542 8.65579C9.23447 8.07674 10.1733 8.07674 10.7524 8.65579C11.3314 9.23484 11.3314 10.1737 10.7524 10.7526ZM14.2472 16.3444C13.6681 15.7654 13.6681 14.8266 14.2472 14.2476C14.8262 13.6685 15.765 13.6685 16.344 14.2476C16.9231 14.8266 16.9231 15.7654 16.344 16.3444C15.765 16.9235 14.8262 16.9235 14.2472 16.3444Z" fill="#FDEA00"/>
</svg>
